<?xml version="1.0" encoding="iso-8859-1"?>
<!-- Generator: Adobe Illustrator 19.0.0, SVG Export Plug-In . SVG Version: 6.00 Build 0)  -->
<svg version="1.1" id="Capa_1" xmlns="http://www.w3.org/2000/svg" xmlns:xlink="http://www.w3.org/1999/xlink" x="0px" y="0px"
	 viewBox="0 0 512.001 512.001" style="enable-background:new 0 0 512.001 512.001;" xml:space="preserve">
<path style="fill:#FFD9A0;" d="M150.152,428.98l4.58-11.918c6.457-16.805,2.815-36.111-9.279-49.185
	c-12.781-13.815-31.739-23.482-44.888-29.552c-14.83-6.846-28.321-17.115-39.013-29.696l-15.687-18.458
	c-9.9-11.65-17.265-24.946-21.89-39.519L8.121,200.689c-1.267-3.994-0.583-8.212,1.877-11.574c2.455-3.355,6.363-5.358,10.453-5.358
	c1.289,0,2.584,0.196,3.848,0.582c3.898,1.191,8.269,5.033,9.952,8.745l19.196,42.351l26.063,31.418l22.682,16.137l-9.936-18.76
	c-3.834-7.036-1.512-15.879,5.287-20.134c2.355-1.474,5.084-2.253,7.893-2.253c4.214,0,8.328,1.755,11.286,4.815l39.046,40.389
	l41.095,14.225c20.93,7.245,36.86,25.19,41.573,46.832l0.038,0.172l7.461,80.703h-95.783V428.98z"/>
<path style="fill:#F4C892;" d="M238.475,348.277l-0.038-0.172c-4.713-21.641-20.643-39.586-41.573-46.832l-41.095-14.225
	l-39.046-40.389c-2.959-3.06-7.072-4.815-11.287-4.815c-2.809,0-5.539,0.779-7.893,2.253c-0.029,0.018-0.055,0.04-0.084,0.058
	l23.384,30.486c10.377,13.529,22.934,25.156,36.763,35.129c12.668,9.135,21.851,22.78,25.238,38.335l0.038,0.172l7.461,80.703
	h55.593L238.475,348.277z"/>
<path style="fill:#FF4C4C;" d="M150.968,401.166h97.958c3.907,0,7.075,3.168,7.075,7.075v40.533c0,3.907-3.168,7.075-7.075,7.075
	h-97.958c-3.907,0-7.075-3.168-7.075-7.075v-40.533C143.893,404.334,147.061,401.166,150.968,401.166z"/>
<path style="fill:#FFD9A0;" d="M361.85,428.98l-4.58-11.918c-6.457-16.805-2.815-36.111,9.279-49.185
	c12.781-13.815,31.739-23.482,44.888-29.552c14.83-6.846,28.321-17.115,39.013-29.696l15.686-18.458
	c9.9-11.65,17.265-24.946,21.89-39.519l15.854-49.963c1.267-3.994,0.583-8.212-1.877-11.574c-2.455-3.355-6.363-5.358-10.453-5.358
	c-1.289,0-2.584,0.196-3.848,0.582c-3.898,1.191-8.269,5.033-9.952,8.745l-19.196,42.351l-26.063,31.418l-22.682,16.137l9.936-18.76
	c3.834-7.036,1.512-15.879-5.287-20.134c-2.355-1.474-5.084-2.253-7.893-2.253c-4.214,0-8.328,1.755-11.286,4.815l-39.046,40.389
	l-41.095,14.225c-20.93,7.245-36.86,25.19-41.573,46.832l-0.038,0.172l-7.461,80.703h95.784V428.98z"/>
<path style="fill:#F4C892;" d="M502.004,189.115c-2.455-3.355-32.134,119.904-145.993,149.21
	c-14.025,3.61-32.107,15.737-44.888,29.552c-12.095,13.074-13.677,29.77-12.646,49.185v11.918h63.372l-4.58-11.918
	c-6.457-16.805-2.815-36.111,9.279-49.185c12.781-13.814,31.739-23.482,44.888-29.552c14.83-6.846,28.321-17.115,39.013-29.696
	l15.686-18.458c9.901-11.65,17.265-24.946,21.89-39.519l15.854-49.963C505.148,196.695,504.464,192.477,502.004,189.115z"/>
<path style="fill:#FF4C4C;" d="M361.033,401.166h-97.958c-3.907,0-7.075,3.168-7.075,7.075v40.533c0,3.907,3.168,7.075,7.075,7.075
	h97.958c3.907,0,7.075-3.168,7.075-7.075v-40.533C368.108,404.334,364.941,401.166,361.033,401.166z"/>
<g>
	<path style="fill:#EF2929;" d="M361.034,401.166h-48.445v54.683h48.445c3.907,0,7.075-3.168,7.075-7.075v-40.533
		C368.108,404.334,364.941,401.166,361.034,401.166z"/>
	<path style="fill:#EF2929;" d="M248.926,401.166h-48.445v54.683h48.445c3.907,0,7.075-3.168,7.075-7.075v-40.533
		C256.001,404.334,252.833,401.166,248.926,401.166z"/>
</g>
<path style="fill:#FFC06C;" d="M356.043,217.24H155.959c-6.224,0-11.27-5.046-11.27-11.27V67.422c0-6.224,5.046-11.27,11.27-11.27
	h200.084c6.224,0,11.27,5.046,11.27,11.27v138.547C367.313,212.194,362.267,217.24,356.043,217.24z"/>
<path style="fill:#EDA558;" d="M356.043,56.153h-44.25V217.24h44.25c6.224,0,11.27-5.046,11.27-11.269V67.422
	C367.313,61.198,362.267,56.153,356.043,56.153z"/>
<rect x="230.691" y="56.151" style="fill:#FF4C4C;" width="50.625" height="62.983"/>
<path d="M508.048,184.691c-3.861-5.275-10.028-8.424-16.497-8.424c-2.031,0-4.063,0.306-6.038,0.909
	c-5.997,1.833-11.994,7.103-14.584,12.816l-18.781,41.435l-23.194,27.959c0.886-8.384-2.967-16.911-10.522-21.639
	c-3.548-2.22-7.652-3.393-11.867-3.393c-6.233,0-12.309,2.587-16.672,7.099l-37.801,39.102l-39.405,13.641
	c-23.381,8.093-41.176,28.139-46.436,52.293l-0.038,0.172c-0.067,0.306-0.116,0.615-0.144,0.927l-1.628,17.618
	c-0.381,4.119,2.65,7.767,6.768,8.147c4.127,0.379,7.767-2.65,8.147-6.769l1.585-17.152c4.234-18.988,18.253-34.714,36.646-41.081
	l41.096-14.226c1.112-0.385,2.117-1.026,2.936-1.872l39.045-40.388c1.556-1.609,3.707-2.532,5.902-2.532
	c1.402,0,2.758,0.385,3.921,1.112c3.447,2.157,4.625,6.638,2.641,10.279l-9.936,18.76c-1.625,3.068-0.928,6.85,1.681,9.138
	c2.611,2.288,6.451,2.482,9.28,0.471l22.682-16.137c0.53-0.377,1.007-0.821,1.423-1.321l26.063-31.418
	c0.426-0.514,0.781-1.082,1.057-1.69l19.196-42.35c0.795-1.754,3.48-4.113,5.318-4.675c2.29-0.699,4.683,0.143,6.068,2.035
	c1.048,1.434,1.326,3.169,0.782,4.885l-15.854,49.963c-4.322,13.621-11.206,26.047-20.458,36.934l-15.686,18.458
	c-9.994,11.759-22.596,21.353-36.446,27.746c-13.728,6.338-33.561,16.474-47.247,31.266c-7.783,8.414-12.707,19.371-14.044,30.886
	h-83.931c-2.567,0-4.978,0.673-7.075,1.844c-1.746-0.975-3.71-1.597-5.801-1.78l-4.266-46.153c-0.028-0.312-0.077-0.621-0.144-0.926
	l-0.033-0.15c-5.265-24.176-23.06-44.222-46.441-52.315l-39.405-13.641l-37.802-39.102c-4.362-4.511-10.438-7.098-16.671-7.098
	c-4.215,0-8.319,1.173-11.867,3.393c-7.559,4.731-11.412,13.264-10.538,21.62l-23.178-27.94l-18.783-41.436
	c-2.59-5.712-8.587-10.982-14.585-12.815c-1.974-0.603-4.005-0.909-6.037-0.909c-6.469,0-12.636,3.149-16.498,8.425
	c-3.885,5.31-4.968,11.966-2.971,18.262l15.854,49.963c4.927,15.527,12.774,29.693,23.322,42.104l15.686,18.458
	c11.393,13.405,25.771,24.348,41.581,31.646c12.569,5.802,30.653,15.001,42.529,27.838c2.809,3.036,7.548,3.221,10.585,0.412
	c3.036-2.809,3.22-7.549,0.411-10.585c-13.685-14.792-33.518-24.928-47.246-31.266c-13.85-6.392-26.452-15.987-36.446-27.746
	L51.571,285.32c-9.252-10.887-16.136-23.313-20.458-36.934l-15.852-49.962c-0.545-1.717-0.267-3.452,0.78-4.885
	c1.387-1.893,3.783-2.734,6.068-2.037c1.839,0.562,4.524,2.922,5.319,4.674l19.196,42.351c0.276,0.608,0.631,1.176,1.057,1.69
	l26.063,31.418c0.415,0.5,0.893,0.944,1.423,1.321l22.682,16.137c2.828,2.013,6.669,1.818,9.28-0.471
	c2.61-2.288,3.306-6.07,1.681-9.138l-9.978-18.838c-1.942-3.563-0.764-8.044,2.683-10.2c1.163-0.728,2.518-1.112,3.921-1.112
	c2.195,0,4.347,0.923,5.901,2.531l39.046,40.389c0.818,0.846,1.824,1.487,2.936,1.872l41.096,14.226
	c18.386,6.365,32.401,22.082,36.646,41.082l4.09,44.243h-84.182c-8.031,0-14.566,6.534-14.566,14.565v40.533
	c0,8.031,6.534,14.565,14.566,14.565h97.958c2.567,0,4.978-0.673,7.075-1.844c2.097,1.171,4.507,1.844,7.075,1.844h97.958
	c8.031,0,14.566-6.534,14.566-14.565v-40.534c0-7.667-5.958-13.954-13.485-14.51c1.223-7.768,4.674-15.082,9.933-20.768
	c11.877-12.836,29.96-22.035,42.529-27.838c15.81-7.298,30.188-18.241,41.581-31.646l15.686-18.458
	c10.548-12.411,18.395-26.577,23.322-42.104l15.855-49.964C513.017,196.658,511.934,190.002,508.048,184.691z M248.511,448.359
	h-97.128v-39.703h97.128c0.003,0,0,0,0.003,0s-0.007,0-0.003,0l0,0L248.511,448.359L248.511,448.359z M360.619,448.359h-97.128
	v-39.703h97.128L360.619,448.359L360.619,448.359z"/>
<path d="M155.959,224.73h200.084c10.345,0,18.76-8.416,18.76-18.76V67.422c0-10.344-8.416-18.76-18.76-18.76l0,0H155.959l0,0
	c-10.345,0-18.76,8.416-18.76,18.76v138.547C137.199,216.314,145.614,224.73,155.959,224.73z M238.179,63.643h35.644v48.003h-35.644
	V63.643z M152.179,67.422c0-2.084,1.696-3.78,3.78-3.78h67.24v55.493c0,4.137,3.353,7.49,7.49,7.49h50.624
	c4.137,0,7.49-3.353,7.49-7.49V63.643h67.24c2.084,0,3.78,1.695,3.78,3.78V205.97c0,2.084-1.696,3.78-3.78,3.78H155.959
	c-2.084,0-3.78-1.696-3.78-3.78V67.422z"/>
<g>
</g>
<g>
</g>
<g>
</g>
<g>
</g>
<g>
</g>
<g>
</g>
<g>
</g>
<g>
</g>
<g>
</g>
<g>
</g>
<g>
</g>
<g>
</g>
<g>
</g>
<g>
</g>
<g>
</g>
</svg>
