<?xml version="1.0" encoding="iso-8859-1"?>
<!-- Generator: Adobe Illustrator 19.0.0, SVG Export Plug-In . SVG Version: 6.00 Build 0)  -->
<svg version="1.1" id="Layer_1" xmlns="http://www.w3.org/2000/svg" xmlns:xlink="http://www.w3.org/1999/xlink" x="0px" y="0px"
	 viewBox="0 0 512 512" style="enable-background:new 0 0 512 512;" xml:space="preserve">
<g>
	<path style="fill:#C69666;" d="M305.404,98.807h-53.895V80.842h-89.825v17.965H35.481C15.629,98.807,0,114.895,0,134.737V476.07
		C0,495.912,15.629,512,35.481,512h341.782c19.842,0,35.93-16.088,35.93-35.93V206.596
		C353.666,206.596,305.404,158.334,305.404,98.807"/>
	<path style="fill:#E8D5B2;" d="M238.329,196.053l-31.735-25.384l-31.726,25.384c-5.318,4.249-13.186,0.467-13.186-6.333V80.844
		h89.825V189.72C251.506,196.52,243.637,200.302,238.329,196.053"/>
	<path style="fill:#ED7161;" d="M512,107.789C512,48.263,463.737,0,404.211,0S296.421,48.263,296.421,107.789
		s48.263,107.789,107.789,107.789S512,167.316,512,107.789"/>
	<polygon style="fill:#E8D5B2;" points="53.895,476.07 179.649,476.07 179.649,368.281 53.895,368.281 	"/>
	<g>
		<path style="fill:#CBB292;" d="M143.719,413.193H89.825c-4.958,0-8.982-4.024-8.982-8.982c0-4.958,4.024-8.982,8.982-8.982h53.895
			c4.958,0,8.982,4.024,8.982,8.982C152.702,409.169,148.678,413.193,143.719,413.193"/>
		<path style="fill:#CBB292;" d="M125.754,449.123h-35.93c-4.958,0-8.982-4.024-8.982-8.982c0-4.958,4.024-8.982,8.982-8.982h35.93
			c4.958,0,8.982,4.024,8.982,8.982C134.737,445.099,130.713,449.123,125.754,449.123"/>
	</g>
	<g>
		<path style="fill:#FFFFFF;" d="M449.123,161.684c-2.299,0-4.599-0.88-6.351-2.632l-89.825-89.825
			c-3.512-3.512-3.512-9.189,0-12.701c3.512-3.512,9.189-3.512,12.701,0l89.825,89.825c3.512,3.512,3.512,9.189,0,12.701
			C453.722,160.804,451.422,161.684,449.123,161.684"/>
		<path style="fill:#FFFFFF;" d="M359.298,161.684c-2.299,0-4.599-0.88-6.351-2.632c-3.512-3.512-3.512-9.189,0-12.701
			l89.825-89.825c3.512-3.512,9.189-3.512,12.701,0c3.512,3.512,3.512,9.189,0,12.701l-89.825,89.825
			C363.897,160.804,361.598,161.684,359.298,161.684"/>
	</g>
</g>
<g>
</g>
<g>
</g>
<g>
</g>
<g>
</g>
<g>
</g>
<g>
</g>
<g>
</g>
<g>
</g>
<g>
</g>
<g>
</g>
<g>
</g>
<g>
</g>
<g>
</g>
<g>
</g>
<g>
</g>
</svg>
