<?xml version="1.0" encoding="iso-8859-1"?>
<!-- Generator: Adobe Illustrator 19.0.0, SVG Export Plug-In . SVG Version: 6.00 Build 0)  -->
<svg version="1.1" id="Layer_1" xmlns="http://www.w3.org/2000/svg" xmlns:xlink="http://www.w3.org/1999/xlink" x="0px" y="0px"
	 viewBox="0 0 512.016 512.016" style="enable-background:new 0 0 512.016 512.016;" xml:space="preserve">
<g transform="translate(0 -1)">
	<path style="fill:#C69666;" d="M390.837,195.333c-4.437-12.486-18.702-18.387-30.666-12.701
		c-18.998,9.036-38.813-10.788-29.786-29.786c5.686-11.965-0.216-26.229-12.701-30.666c-10.402-3.701-12.8-13.159-12.279-22.357
		H251.51V81.858h-89.825v17.965H35.473c-19.842,0-35.472,16.088-35.472,35.93v341.333c0,19.851,15.629,35.93,35.472,35.93h341.791
		c19.842,0,35.93-16.079,35.93-35.93V207.612C403.996,208.133,394.538,205.735,390.837,195.333"/>
	<g>
		<path style="fill:#E8D5B2;" d="M238.328,197.073l-31.735-25.384l-31.726,25.384c-5.318,4.249-13.186,0.467-13.186-6.333V81.864
			h89.825V190.74C251.505,197.54,243.637,201.322,238.328,197.073"/>
		<polygon style="fill:#E8D5B2;" points="53.894,477.09 179.648,477.09 179.648,369.301 53.894,369.301 		"/>
	</g>
	<g>
		<path style="fill:#CBB292;" d="M143.719,414.213H89.824c-4.967,0-8.982-4.024-8.982-8.982c0-4.958,4.015-8.982,8.982-8.982h53.895
			c4.967,0,8.982,4.024,8.982,8.982C152.701,410.189,148.686,414.213,143.719,414.213"/>
		<path style="fill:#CBB292;" d="M125.754,450.143h-35.93c-4.967,0-8.982-4.024-8.982-8.982c0-4.958,4.015-8.982,8.982-8.982h35.93
			c4.967,0,8.982,4.024,8.982,8.982C134.736,446.119,130.721,450.143,125.754,450.143"/>
	</g>
	<path style="fill:#556080;" d="M424,15.868L424,15.868c4.437,12.486,18.692,18.387,30.657,12.701
		c19.007-9.036,38.822,10.788,29.795,29.786l0,0c-5.686,11.965,0.216,26.229,12.701,30.666c19.815,7.042,19.815,35.076,0,42.128
		c-12.486,4.437-18.387,18.692-12.701,30.657c9.027,18.998-10.788,38.822-29.795,29.795c-11.965-5.695-26.22,0.216-30.657,12.701
		l0,0c-6.997,16.24-34.376,16.573-42.128,0l0,0c-4.437-12.486-18.701-18.396-30.666-12.701
		c-18.998,9.027-38.813-10.797-29.786-29.795c5.686-11.965-0.216-26.22-12.701-30.657l0,0c-16.483-7.788-16.294-35.867,0-42.128
		c12.486-4.437,18.387-18.701,12.701-30.666l0,0c-9.027-18.998,10.788-38.822,29.786-29.786
		c11.965,5.686,26.229-0.216,30.666-12.701C388.923-3.956,416.949-3.956,424,15.868"/>
	<path style="fill:#FFFFFF;" d="M440.158,108.793c0-19.842-16.088-35.93-35.93-35.93s-35.93,16.088-35.93,35.93
		s16.088,35.93,35.93,35.93S440.158,128.635,440.158,108.793"/>
	<path style="fill:none;stroke:#EDF0F1;stroke-width:2;" d="M440.158,108.793c0-19.842-16.088-35.93-35.93-35.93
		s-35.93,16.088-35.93,35.93s16.088,35.93,35.93,35.93S440.158,128.635,440.158,108.793L440.158,108.793z"/>
</g>
<g>
</g>
<g>
</g>
<g>
</g>
<g>
</g>
<g>
</g>
<g>
</g>
<g>
</g>
<g>
</g>
<g>
</g>
<g>
</g>
<g>
</g>
<g>
</g>
<g>
</g>
<g>
</g>
<g>
</g>
</svg>
