<?xml version="1.0" encoding="iso-8859-1"?>
<!-- Generator: Adobe Illustrator 19.0.0, SVG Export Plug-In . SVG Version: 6.00 Build 0)  -->
<svg version="1.1" id="Capa_1" xmlns="http://www.w3.org/2000/svg" xmlns:xlink="http://www.w3.org/1999/xlink" x="0px" y="0px"
	 viewBox="0 0 511.999 511.999" style="enable-background:new 0 0 511.999 511.999;" xml:space="preserve">
<path style="fill:#FFC06C;" d="M413.948,16.605H53.872c-3.113,0-6.014,1.578-7.706,4.192L7.488,80.552v337.902
	c0,3.355,2.72,6.075,6.075,6.075h440.695c3.355,0,6.075-2.72,6.075-6.075V80.552l0,0l-38.678-59.756
	C419.962,18.183,417.061,16.605,413.948,16.605z"/>
<g>
	<path style="fill:#EDA558;" d="M421.654,20.796c-1.692-2.614-4.593-4.192-7.706-4.192h-50.51l41.391,63.948v308.036H7.488v29.867
		c0,3.355,2.72,6.075,6.075,6.075h440.695l0,0c3.355,0,6.075-2.72,6.075-6.075v-29.867l0,0V80.552l0,0l0,0l0,0L421.654,20.796z"/>
	<path style="fill:#EDA558;" d="M460.332,80.552l-38.678-59.756c-1.692-2.614-4.593-4.192-7.706-4.192H53.872
		c-3.113,0-6.014,1.578-7.706,4.192L7.488,80.552H460.332z"/>
</g>
<polygon style="fill:#CE3D21;" points="277.172,16.605 190.647,16.605 176.844,80.552 290.976,80.552 "/>
<path style="fill:#FF4C4C;" d="M176.844,80.552v91.02c0,1.774,1.064,3.376,2.7,4.063l9.858,4.14c1.091,0.458,2.321,0.458,3.412,0
	l10.852-4.557c1.091-0.458,2.321-0.458,3.412,0l10.854,4.557c1.091,0.458,2.321,0.458,3.412,0l10.85-4.557
	c1.091-0.458,2.321-0.458,3.412,0l10.855,4.558c1.091,0.458,2.32,0.458,3.412,0l10.857-4.558c1.091-0.458,2.32-0.458,3.411,0
	L275,179.775c1.091,0.458,2.32,0.458,3.411,0l9.864-4.141c1.636-0.687,2.701-2.288,2.701-4.063v-91.02H176.844V80.552z"/>
<path style="fill:#E29549;" d="M363.438,16.605l41.391,63.948h55.503l0,0l-38.678-59.756c-1.692-2.614-4.593-4.192-7.706-4.192
	H363.438z"/>
<circle style="fill:#3D6687;" cx="329.29" cy="320.168" r="104.2"/>
<path style="fill:#0C5177;" d="M402.973,246.492c-28.961-28.961-70.727-37.303-107.072-25.04
	c20.156,3.649,39.444,13.257,55.025,28.838c40.692,40.692,40.692,106.668,0,147.36c-11.731,11.731-25.566,20.073-40.288,25.04
	c32.485,5.881,67.223-3.726,92.335-28.838C443.665,353.159,443.665,287.184,402.973,246.492z"/>
<circle style="fill:#FFFFFF;" cx="329.29" cy="320.168" r="75.62"/>
<path style="fill:#E1EFFB;" d="M382.762,266.702c-22.093-22.093-54.454-27.652-81.72-16.688c9.179,3.691,17.782,9.251,25.22,16.688
	c29.531,29.531,29.531,77.409,0,106.94c-7.438,7.438-16.041,12.997-25.22,16.688c27.266,10.964,59.627,5.405,81.72-16.688
	C412.293,344.111,412.293,296.232,382.762,266.702z"/>
<path style="fill:#FF4C4C;" d="M503.241,478.475l-15.645,15.645c-1.695,1.695-4.443,1.695-6.138,0l-63.269-63.269
	c-1.695-1.695-1.695-4.443,0-6.138l15.645-15.645c1.695-1.695,4.443-1.695,6.138,0l63.269,63.269
	C504.936,474.031,504.936,476.78,503.241,478.475z"/>
<path d="M388.057,261.407c-32.403-32.403-85.126-32.403-117.529,0s-32.403,85.126,0,117.529
	c16.202,16.202,37.483,24.302,58.764,24.302c21.282,0,42.563-8.101,58.765-24.302C420.46,346.533,420.46,293.81,388.057,261.407z
	 M377.468,368.347c-26.564,26.565-69.787,26.564-96.351,0s-26.564-69.786,0-96.35c13.282-13.282,30.729-19.923,48.176-19.923
	s34.893,6.641,48.175,19.923C404.031,298.561,404.031,341.783,377.468,368.347z"/>
<path d="M260.711,417.042H14.976V140.724c0-4.135-3.352-7.488-7.488-7.488S0,136.588,0,140.724v277.731
	c0,7.479,6.084,13.562,13.562,13.562h247.149c4.135,0,7.488-3.352,7.488-7.488C268.199,420.394,264.846,417.042,260.711,417.042z"/>
<path d="M7.488,113.294c4.135,0,7.488-3.352,7.488-7.488V88.04h154.38v83.532c0,4.803,2.861,9.108,7.289,10.966l9.858,4.14
	c2.927,1.228,6.283,1.229,9.21,0l9.66-4.056l9.664,4.058c2.926,1.227,6.282,1.226,9.208-0.002l9.658-4.056l9.661,4.057
	c2.927,1.229,6.284,1.23,9.21,0l9.664-4.057l9.664,4.057c1.464,0.615,3.035,0.922,4.606,0.922c1.57,0,3.141-0.307,4.603-0.921
	l9.863-4.14c4.429-1.859,7.291-6.164,7.291-10.967V88.04h154.38v301.495c0,4.135,3.352,7.488,7.488,7.488
	c4.135,0,7.488-3.352,7.488-7.488V80.553c0-0.045-0.009-0.09-0.01-0.135c-0.004-0.205-0.024-0.408-0.044-0.613
	c-0.014-0.141-0.022-0.281-0.044-0.421c-0.033-0.212-0.086-0.42-0.138-0.628c-0.031-0.127-0.054-0.255-0.092-0.38
	c-0.069-0.228-0.16-0.449-0.251-0.67c-0.041-0.1-0.072-0.204-0.118-0.302c-0.146-0.315-0.313-0.623-0.505-0.919L427.94,16.728
	c-3.085-4.765-8.316-7.61-13.991-7.61l0,0H53.872l0,0c-5.676,0-10.906,2.845-13.992,7.611L1.202,76.484
	c-0.192,0.297-0.359,0.604-0.505,0.919c-0.046,0.098-0.076,0.202-0.118,0.302c-0.091,0.221-0.182,0.443-0.251,0.67
	c-0.038,0.125-0.061,0.253-0.092,0.38c-0.052,0.209-0.104,0.417-0.138,0.628c-0.022,0.139-0.03,0.28-0.044,0.421
	c-0.02,0.204-0.04,0.408-0.044,0.613C0.009,80.463,0,80.507,0,80.553v25.253C0,109.941,3.352,113.294,7.488,113.294z
	 M413.948,24.093c0.576,0,1.108,0.289,1.42,0.772l31.198,48.2H297.02l-10.571-48.972C286.449,24.093,413.948,24.093,413.948,24.093z
	 M196.691,24.093h74.437L281.7,73.065h-95.58L196.691,24.093z M184.331,88.04h99.157v81.483l-6.782,2.847l-9.665-4.057
	c-1.463-0.615-3.035-0.922-4.605-0.922s-3.141,0.307-4.604,0.921l-9.664,4.057l-9.665-4.058c-2.925-1.227-6.281-1.226-9.208,0.002
	l-9.657,4.056l-9.661-4.056c-2.927-1.229-6.284-1.228-9.21,0l-9.66,4.056l-6.777-2.845V88.04H184.331z M52.451,24.866
	c0.313-0.484,0.845-0.773,1.421-0.773h127.499L170.8,73.065H21.254L52.451,24.866z"/>
<path d="M508.535,467.042l-63.265-63.265c-0.002-0.002-0.003-0.003-0.005-0.005c-0.049-0.049-0.102-0.089-0.151-0.137
	c-0.239-0.231-0.482-0.457-0.737-0.665c-0.057-0.047-0.119-0.086-0.177-0.131c-0.256-0.202-0.516-0.398-0.786-0.577
	c-0.013-0.009-0.028-0.016-0.041-0.025c-1.907-1.252-4.137-1.928-6.471-1.928c-2.347,0-4.588,0.682-6.502,1.946
	c-0.003,0.002-0.006,0.004-0.009,0.006c-0.282,0.187-0.554,0.391-0.821,0.603c-0.046,0.037-0.096,0.068-0.142,0.106
	c-0.266,0.218-0.521,0.453-0.771,0.696c-0.039,0.038-0.081,0.069-0.119,0.108l-2.528,2.528l-12.628-12.628
	c17.846-20.358,27.597-46.179,27.597-73.501c0-29.833-11.618-57.88-32.713-78.974s-49.142-32.713-78.975-32.713
	s-57.88,11.618-78.974,32.713c-21.095,21.095-32.712,49.142-32.712,78.974s11.617,57.88,32.712,78.974
	c21.095,21.095,49.142,32.713,78.974,32.713c0.219,0,0.437-0.007,0.655-0.008c0.505,0.107,1.028,0.166,1.564,0.166h78.707
	c0.586,1.529,1.482,2.936,2.675,4.129l63.269,63.269c2.234,2.234,5.204,3.465,8.364,3.465c3.159,0,6.13-1.23,8.364-3.465
	l15.645-15.645c2.234-2.234,3.465-5.204,3.465-8.364C512,472.246,510.77,469.276,508.535,467.042z M260.907,388.557
	c-37.708-37.708-37.708-99.063,0-136.771c18.854-18.854,43.62-28.281,68.385-28.281c24.766,0,49.532,9.427,68.386,28.281
	c37.707,37.708,37.707,99.063,0,136.771S298.616,426.265,260.907,388.557z M415.27,417.042h-30.306
	c6.298-3.633,12.27-7.901,17.833-12.776l12.624,12.624L415.27,417.042z M484.526,486.6l-58.818-58.818l9.03-9.03l2.164-2.164
	l58.818,58.817L484.526,486.6z"/>
<path d="M63.883,364.967c4.135,0,7.488-3.352,7.488-7.488v-56.88l8.071,8.784c2.798,3.045,7.534,3.245,10.58,0.447
	c3.045-2.798,3.245-7.535,0.447-10.58l-21.072-22.933c-0.033-0.036-0.071-0.067-0.105-0.102c-0.099-0.104-0.202-0.203-0.307-0.301
	c-0.079-0.073-0.156-0.147-0.238-0.216c-0.113-0.096-0.23-0.187-0.348-0.277c-0.079-0.06-0.157-0.122-0.239-0.179
	c-0.134-0.093-0.273-0.179-0.413-0.263c-0.072-0.043-0.141-0.089-0.214-0.13c-0.164-0.092-0.333-0.173-0.504-0.253
	c-0.055-0.025-0.107-0.054-0.162-0.078c-0.198-0.086-0.402-0.162-0.609-0.231c-0.032-0.011-0.063-0.024-0.095-0.035
	c-0.226-0.072-0.457-0.133-0.692-0.184c-0.015-0.003-0.03-0.008-0.046-0.012c-0.24-0.05-0.485-0.089-0.733-0.116
	c-0.01-0.001-0.02-0.003-0.03-0.005c-0.256-0.026-0.516-0.041-0.779-0.041s-0.523,0.014-0.779,0.041
	c-0.01,0.001-0.02,0.004-0.03,0.005c-0.248,0.027-0.493,0.065-0.733,0.115c-0.016,0.003-0.032,0.009-0.048,0.012
	c-0.234,0.051-0.465,0.111-0.69,0.183c-0.033,0.011-0.065,0.025-0.098,0.036c-0.206,0.069-0.408,0.144-0.606,0.23
	c-0.055,0.024-0.108,0.053-0.163,0.079c-0.171,0.079-0.34,0.161-0.503,0.253c-0.072,0.04-0.141,0.086-0.213,0.129
	c-0.141,0.085-0.28,0.171-0.415,0.265c-0.08,0.056-0.157,0.117-0.235,0.176c-0.12,0.091-0.239,0.182-0.353,0.28
	c-0.079,0.068-0.156,0.14-0.232,0.211c-0.108,0.1-0.213,0.202-0.314,0.308c-0.033,0.034-0.069,0.064-0.101,0.099l-21.072,22.933
	c-2.798,3.045-2.598,7.782,0.448,10.58c1.438,1.322,3.253,1.974,5.064,1.974c2.023,0,4.039-0.815,5.515-2.422l8.071-8.783v56.88
	C56.395,361.614,59.748,364.967,63.883,364.967z"/>
<path d="M159.09,299.25l-21.072-22.933c-0.033-0.036-0.071-0.067-0.105-0.102c-0.099-0.104-0.202-0.203-0.307-0.301
	c-0.079-0.073-0.156-0.147-0.238-0.216c-0.113-0.096-0.23-0.187-0.348-0.277c-0.079-0.06-0.157-0.122-0.239-0.179
	c-0.134-0.093-0.273-0.179-0.413-0.263c-0.072-0.043-0.141-0.089-0.214-0.13c-0.164-0.092-0.333-0.173-0.504-0.253
	c-0.055-0.025-0.107-0.054-0.162-0.078c-0.198-0.086-0.402-0.162-0.609-0.231c-0.032-0.011-0.063-0.024-0.095-0.035
	c-0.226-0.072-0.457-0.133-0.692-0.184c-0.015-0.003-0.03-0.008-0.046-0.012c-0.24-0.05-0.485-0.089-0.733-0.116
	c-0.01-0.001-0.02-0.003-0.03-0.005c-0.256-0.026-0.516-0.041-0.779-0.041s-0.523,0.014-0.779,0.041
	c-0.01,0.001-0.02,0.004-0.03,0.005c-0.248,0.027-0.493,0.065-0.733,0.115c-0.016,0.003-0.032,0.009-0.048,0.012
	c-0.234,0.051-0.465,0.111-0.69,0.183c-0.033,0.011-0.065,0.025-0.098,0.036c-0.206,0.069-0.408,0.144-0.606,0.23
	c-0.055,0.024-0.108,0.053-0.163,0.079c-0.171,0.079-0.34,0.161-0.503,0.253c-0.072,0.04-0.141,0.086-0.213,0.129
	c-0.141,0.085-0.28,0.171-0.415,0.265c-0.08,0.056-0.157,0.117-0.235,0.176c-0.12,0.091-0.239,0.182-0.353,0.28
	c-0.079,0.068-0.156,0.14-0.232,0.211c-0.108,0.1-0.213,0.202-0.314,0.308c-0.033,0.034-0.069,0.064-0.101,0.099l-21.072,22.933
	c-2.798,3.045-2.598,7.782,0.448,10.58c1.438,1.322,3.253,1.974,5.064,1.974c2.023,0,4.039-0.815,5.515-2.422l8.071-8.783v56.88
	c0,4.135,3.352,7.488,7.488,7.488s7.488-3.352,7.488-7.488v-56.88l8.071,8.784c2.799,3.045,7.535,3.245,10.58,0.447
	C161.688,307.032,161.888,302.296,159.09,299.25z"/>
<path d="M47.702,392.504h100.984c4.135,0,7.488-3.352,7.488-7.488c0-4.135-3.352-7.488-7.488-7.488H47.702
	c-4.135,0-7.488,3.352-7.488,7.488C40.214,389.151,43.566,392.504,47.702,392.504z"/>
<g>
</g>
<g>
</g>
<g>
</g>
<g>
</g>
<g>
</g>
<g>
</g>
<g>
</g>
<g>
</g>
<g>
</g>
<g>
</g>
<g>
</g>
<g>
</g>
<g>
</g>
<g>
</g>
<g>
</g>
</svg>
