<?xml version="1.0" encoding="iso-8859-1"?>
<!-- Generator: Adobe Illustrator 19.0.0, SVG Export Plug-In . SVG Version: 6.00 Build 0)  -->
<svg version="1.1" id="Capa_1" xmlns="http://www.w3.org/2000/svg" xmlns:xlink="http://www.w3.org/1999/xlink" x="0px" y="0px"
	 viewBox="0 0 512 512" style="enable-background:new 0 0 512 512;" xml:space="preserve">
<g>
	<rect x="22.091" y="453.941" style="fill:#334A5E;" width="56.288" height="34.272"/>
	<rect x="433.621" y="453.941" style="fill:#334A5E;" width="56.288" height="34.272"/>
	<rect x="227.851" y="453.941" style="fill:#334A5E;" width="56.288" height="34.272"/>
</g>
<g>
	<rect y="488.213" style="fill:#40596B;" width="512" height="23.787"/>
	<rect y="430.08" style="fill:#40596B;" width="512" height="23.787"/>
</g>
<path style="fill:#FFD15C;" d="M439.061,0H72.939c-17.664,0-32,14.336-32,32v366.123c0,17.664,14.336,32,32,32h366.123
	c17.675,0,32-14.336,32-32V32C471.061,14.336,456.736,0,439.061,0"/>
<rect x="207.531" style="fill:#F8B64C;" width="96.96" height="85.547"/>
<path style="fill:#F2F2F2;" d="M264.352,379.317v-90.08c0-4.48-3.659-8.149-8.149-8.149H91.744c-4.491,0-8.139,3.669-8.139,8.149
	v90.08c0,4.501,3.648,8.149,8.139,8.149h164.469C260.693,387.456,264.352,383.808,264.352,379.317"/>
<g>
	<rect x="94.453" y="291.957" style="fill:#40596B;" width="8.8" height="84.651"/>
	<rect x="244.693" y="291.957" style="fill:#40596B;" width="8.8" height="84.651"/>
	<rect x="112.64" y="291.957" style="fill:#40596B;" width="2.485" height="84.651"/>
	<rect x="125.237" y="291.957" style="fill:#40596B;" width="7.339" height="84.651"/>
	<rect x="170.304" y="291.957" style="fill:#40596B;" width="7.339" height="84.651"/>
	<rect x="230.411" y="291.957" style="fill:#40596B;" width="7.339" height="84.651"/>
	<rect x="217.216" y="291.957" style="fill:#40596B;" width="3.669" height="84.651"/>
	<rect x="187.168" y="291.957" style="fill:#40596B;" width="3.68" height="84.651"/>
	<rect x="154.549" y="291.957" style="fill:#40596B;" width="8.8" height="84.651"/>
	<rect x="200.576" y="291.957" style="fill:#40596B;" width="6.901" height="84.651"/>
	<rect x="139.52" y="291.957" style="fill:#40596B;" width="8.8" height="84.651"/>
</g>
<g>
	<rect x="298.091" y="377.28" style="fill:#FF7058;" width="130.304" height="10.123"/>
	<polygon style="fill:#FF7058;" points="318.133,365.184 344.331,365.184 344.331,309.397 359.883,309.397 331.232,280.747 
		302.581,309.397 318.133,309.397 	"/>
	<polygon style="fill:#FF7058;" points="382.155,365.184 408.352,365.184 408.352,309.397 423.904,309.397 395.253,280.747 
		366.603,309.397 382.155,309.397 	"/>
</g>
<g>
</g>
<g>
</g>
<g>
</g>
<g>
</g>
<g>
</g>
<g>
</g>
<g>
</g>
<g>
</g>
<g>
</g>
<g>
</g>
<g>
</g>
<g>
</g>
<g>
</g>
<g>
</g>
<g>
</g>
</svg>
