<?xml version="1.0" encoding="iso-8859-1"?>
<!-- Generator: Adobe Illustrator 19.0.0, SVG Export Plug-In . SVG Version: 6.00 Build 0)  -->
<svg version="1.1" id="Layer_1" xmlns="http://www.w3.org/2000/svg" xmlns:xlink="http://www.w3.org/1999/xlink" x="0px" y="0px"
	 viewBox="0 0 512 512" style="enable-background:new 0 0 512 512;" xml:space="preserve">
<polygon style="fill:#75C0C7;" points="384.075,47.877 504.147,191.962 504.147,464.123 7.854,464.123 7.854,191.962 
	127.925,47.877 "/>
<rect x="280.016" y="368.063" style="fill:#FFFFFF;" width="184.105" height="64.035"/>
<polyline style="fill:#589095;" points="256,464.123 7.854,464.123 7.854,191.962 127.925,47.877 256,47.877 "/>
<rect x="7.854" y="194.702" style="fill:#BD8C2C;" width="168.104" height="29.276"/>
<polyline style="fill:#4BAF78;" points="352.057,368.066 352.057,328.043 223.981,328.043 223.981,400.085 280.015,400.085 
	280.015,368.066 352.057,368.066 "/>
<rect x="223.981" y="328.04" style="fill:#1E834E;" width="32.019" height="72.043"/>
<rect x="336.051" y="194.702" style="fill:#FCBB3B;" width="168.104" height="29.276"/>
<polyline style="fill:#E0DCCD;" points="216.207,47.877 176.414,191.962 176.414,296.023 256,272.009 335.586,296.023 
	335.586,191.962 295.909,47.877 "/>
<polyline style="fill:#A8A59A;" points="256.231,271.876 176.414,296.023 176.414,191.962 215.977,47.611 256,47.611 "/>
<rect x="247.627" y="64.37" width="15.708" height="112.048"/>
<path d="M471.977,439.958H272.161v-79.746h199.816L471.977,439.958L471.977,439.958z M287.869,424.25h168.4V375.92h-168.4V424.25z"
	/>
<polygon points="264.006,407.94 216.128,407.94 216.128,320.189 359.911,320.189 359.911,352.057 344.203,352.057 344.203,335.897 
	231.835,335.897 231.835,392.232 264.006,392.232 "/>
<rect x="304.174" y="392.138" width="15.708" height="15.708"/>
<rect x="328.26" y="392.138" width="15.708" height="15.708"/>
<rect x="352.345" y="392.138" width="15.708" height="15.708"/>
<rect x="376.43" y="392.138" width="15.708" height="15.708"/>
<rect x="400.515" y="392.138" width="15.708" height="15.708"/>
<rect x="424.6" y="392.138" width="15.708" height="15.708"/>
<rect x="247.627" y="360.722" width="16.755" height="15.708"/>
<g>
	<polygon style="fill:#FFFFFF;" points="92.258,393.551 63.886,374.637 35.516,393.551 44.229,406.62 55.989,398.78 55.989,431.926 
		71.696,431.926 71.696,398.721 83.545,406.62 	"/>
	<polygon style="fill:#FFFFFF;" points="156.295,393.551 127.925,374.637 99.554,393.551 108.267,406.62 119.867,398.887 
		119.867,431.926 135.574,431.926 135.574,398.616 147.582,406.62 	"/>
</g>
<path d="M387.755,40.023H124.246L0,189.119v282.858h512V189.119L387.755,40.023z M487.074,183.745H341.976l-35.6-128.014h74.022
	L487.074,183.745z M183.745,199.452h144.511v86.019L256,263.81l-72.255,21.661V199.452z M186.327,183.745l35.587-128.014h68.158
	l35.6,128.014H186.327z M131.603,55.731h74.007l-35.586,128.014H24.926L131.603,55.731z M15.708,456.269V231.915h16.196v-15.708
	H15.708v-16.755h152.329v16.755H40.281v15.708h127.756v74.663L256,280.209l87.963,26.369V199.452h152.329v16.755h-16.196v15.708
	h16.196v224.354H15.708z"/>
<rect x="335.59" y="216.211" width="136.133" height="15.708"/>
<rect x="247.627" y="207.834" width="15.708" height="15.708"/>
<g>
</g>
<g>
</g>
<g>
</g>
<g>
</g>
<g>
</g>
<g>
</g>
<g>
</g>
<g>
</g>
<g>
</g>
<g>
</g>
<g>
</g>
<g>
</g>
<g>
</g>
<g>
</g>
<g>
</g>
</svg>
