<?xml version="1.0" encoding="iso-8859-1"?>
<!-- Generator: Adobe Illustrator 19.0.0, SVG Export Plug-In . SVG Version: 6.00 Build 0)  -->
<svg version="1.1" id="Capa_1" xmlns="http://www.w3.org/2000/svg" xmlns:xlink="http://www.w3.org/1999/xlink" x="0px" y="0px"
	 viewBox="0 0 512 512" style="enable-background:new 0 0 512 512;" xml:space="preserve">
<g>
	<path style="fill:#AAC4DA;" d="M501.333,10.667v490.667h-32h-10.667V256v-32v-32V10.667H501.333z"/>
	<path style="fill:#AAC4DA;" d="M53.333,256v245.333H42.667h-32V10.667h42.667V192v32V256z"/>
</g>
<g>
	<path style="fill:#D9EEF7;" d="M352,117.333v21.333v32h-42.667v-32v-21.333h32H352z"/>
	<path style="fill:#D9EEF7;" d="M288,32v32h-42.667V32V10.667H288V32z"/>
	<path style="fill:#D9EEF7;" d="M202.667,117.333v21.333v32H160v-32v-21.333h32H202.667z"/>
	<path style="fill:#D9EEF7;" d="M352,394.667V416v32h-42.667v-32v-21.333h32H352z"/>
	<path style="fill:#D9EEF7;" d="M202.667,394.667V416v32H160v-32v-21.333h32H202.667z"/>
	<path style="fill:#D9EEF7;" d="M288,309.333v32h-42.667v-32V288H288V309.333z"/>
</g>
<g>
	<path style="fill:#FFE451;" d="M405.333,128v96H256v-96c0-5.891,4.776-10.667,10.667-10.667h42.667v53.333H352v-53.333h42.667
		C400.558,117.333,405.333,122.109,405.333,128z"/>
	<path style="fill:#FFE451;" d="M245.333,117.333H192v-96c0-5.891,4.776-10.667,10.667-10.667h42.667V64H288V10.667h42.667
		c5.891,0,10.667,4.776,10.667,10.667v96h-74.667c-5.891,0-10.667,4.776-10.667,10.667C256,122.109,251.224,117.333,245.333,117.333
		z"/>
	<path style="fill:#FFE451;" d="M256,128v96H106.667v-96c0-5.891,4.776-10.667,10.667-10.667H160v53.333h42.667v-53.333h42.667
		C251.224,117.333,256,122.109,256,128z"/>
	<path style="fill:#FFE451;" d="M405.333,405.333v96H256v-96c0-5.891,4.776-10.667,10.667-10.667h42.667V448H352v-53.333h42.667
		C400.558,394.667,405.333,399.442,405.333,405.333z"/>
	<path style="fill:#FFE451;" d="M256,405.333v96H106.667v-96c0-5.891,4.776-10.667,10.667-10.667H160V448h42.667v-53.333h42.667
		C251.224,394.667,256,399.442,256,405.333z"/>
	<path style="fill:#FFE451;" d="M245.333,394.667H192v-96c0-5.891,4.776-10.667,10.667-10.667h42.667v53.333H288V288h42.667
		c5.891,0,10.667,4.776,10.667,10.667v96h-74.667c-5.891,0-10.667,4.776-10.667,10.667C256,399.442,251.224,394.667,245.333,394.667
		z"/>
</g>
<g>
	<path style="fill:#4C5B66;" d="M501.333,0h-42.667C452.776,0,448,4.776,448,10.667V192h21.333V21.333h21.333v469.333h-21.333V256
		H448v234.667h-32v-85.333c0-11.782-9.551-21.333-21.333-21.333H352v-85.333c0-11.782-9.551-21.333-21.333-21.333h-128
		c-11.782,0-21.333,9.551-21.333,21.333v64h21.333v-64h128V384h-64c-3.756,0.021-7.438,1.045-10.667,2.965
		c-3.228-1.92-6.911-2.944-10.667-2.965h-128C105.551,384,96,393.551,96,405.333v85.333H64V256H42.667v234.667H21.333V21.333h21.333
		V192H64V10.667C64,4.776,59.224,0,53.333,0H10.667C4.776,0,0,4.776,0,10.667v490.667C0,507.224,4.776,512,10.667,512h490.667
		c5.891,0,10.667-4.776,10.667-10.667V10.667C512,4.776,507.224,0,501.333,0z M394.667,405.333v85.333h-128v-85.333H394.667z
		 M117.333,405.333h128v85.333h-128V405.333z"/>
	<path style="fill:#4C5B66;" d="M192,416v21.333h-21.333V416h-21.333v32c0,5.891,4.776,10.667,10.667,10.667h42.667
		c5.891,0,10.667-4.776,10.667-10.667v-32H192z"/>
	<path style="fill:#4C5B66;" d="M234.667,309.333v32c0,5.891,4.776,10.667,10.667,10.667H288c5.891,0,10.667-4.776,10.667-10.667
		v-32h-21.333v21.333H256v-21.333H234.667z"/>
	<path style="fill:#4C5B66;" d="M309.333,458.667H352c5.891,0,10.667-4.776,10.667-10.667v-32h-21.333v21.333H320V416h-21.333v32
		C298.667,453.891,303.442,458.667,309.333,458.667z"/>
	<path style="fill:#4C5B66;" d="M192,138.667V160h-21.333v-21.333h-21.333v32c0,5.891,4.776,10.667,10.667,10.667h42.667
		c5.891,0,10.667-4.776,10.667-10.667v-32H192z"/>
	<path style="fill:#4C5B66;" d="M234.667,32v32c0,5.891,4.776,10.667,10.667,10.667H288c5.891,0,10.667-4.776,10.667-10.667V32
		h-21.333v21.333H256V32H234.667z"/>
	<path style="fill:#4C5B66;" d="M309.333,181.333H352c5.891,0,10.667-4.776,10.667-10.667v-32h-21.333V160H320v-21.333h-21.333v32
		C298.667,176.558,303.442,181.333,309.333,181.333z"/>
	<path style="fill:#4C5B66;" d="M42.667,213.333v21.333h426.667v-21.333H416V128c0-11.782-9.551-21.333-21.333-21.333h-128
		c-3.756,0.021-7.438,1.045-10.667,2.965c-3.228-1.92-6.911-2.944-10.667-2.965h-42.667V21.333h128v64H352v-64
		C352,9.551,342.449,0,330.667,0h-128c-11.782,0-21.333,9.551-21.333,21.333v85.333h-64C105.551,106.667,96,116.218,96,128v85.333
		H42.667z M394.667,128v85.333h-128V128H394.667z M117.333,128h128v85.333h-128V128z"/>
</g>
<g>
</g>
<g>
</g>
<g>
</g>
<g>
</g>
<g>
</g>
<g>
</g>
<g>
</g>
<g>
</g>
<g>
</g>
<g>
</g>
<g>
</g>
<g>
</g>
<g>
</g>
<g>
</g>
<g>
</g>
</svg>
