<?xml version="1.0" encoding="iso-8859-1"?>
<!-- Generator: Adobe Illustrator 19.0.0, SVG Export Plug-In . SVG Version: 6.00 Build 0)  -->
<svg version="1.1" id="Capa_1" xmlns="http://www.w3.org/2000/svg" xmlns:xlink="http://www.w3.org/1999/xlink" x="0px" y="0px"
	 viewBox="0 0 512 512" style="enable-background:new 0 0 512 512;" xml:space="preserve">
<g>
	<g>
		<path style="fill:#E64C3C;" d="M211.862,247.172h-35.31c-4.875,0-8.828-3.952-8.828-8.828c0-4.875,3.952-8.828,8.828-8.828h35.31
			c4.875,0,8.828,3.952,8.828,8.828C220.69,243.22,216.737,247.172,211.862,247.172z"/>
		<path style="fill:#E64C3C;" d="M211.862,203.034h-35.31c-4.875,0-8.828-3.952-8.828-8.828s3.952-8.828,8.828-8.828h35.31
			c4.875,0,8.828,3.952,8.828,8.828S216.737,203.034,211.862,203.034z"/>
		<path style="fill:#E64C3C;" d="M211.862,158.897h-35.31c-4.875,0-8.828-3.952-8.828-8.828s3.952-8.828,8.828-8.828h35.31
			c4.875,0,8.828,3.952,8.828,8.828S216.737,158.897,211.862,158.897z"/>
		<path style="fill:#E64C3C;" d="M211.862,291.31h-35.31c-4.875,0-8.828-3.952-8.828-8.828s3.952-8.828,8.828-8.828h35.31
			c4.875,0,8.828,3.952,8.828,8.828S216.737,291.31,211.862,291.31z"/>
		<path style="fill:#E64C3C;" d="M211.862,335.448h-35.31c-4.875,0-8.828-3.952-8.828-8.828s3.952-8.828,8.828-8.828h35.31
			c4.875,0,8.828,3.952,8.828,8.828S216.737,335.448,211.862,335.448z"/>
		<path style="fill:#E64C3C;" d="M211.862,379.586h-35.31c-4.875,0-8.828-3.952-8.828-8.828s3.952-8.828,8.828-8.828h35.31
			c4.875,0,8.828,3.952,8.828,8.828S216.737,379.586,211.862,379.586z"/>
		<path style="fill:#E64C3C;" d="M211.862,423.724h-35.31c-4.875,0-8.828-3.952-8.828-8.828s3.952-8.828,8.828-8.828h35.31
			c4.875,0,8.828,3.952,8.828,8.828S216.737,423.724,211.862,423.724z"/>
	</g>
	<g>
		<path style="fill:#C03A2B;" d="M211.862,467.862h-35.31c-4.875,0-8.828-3.952-8.828-8.828s3.952-8.828,8.828-8.828h35.31
			c4.875,0,8.828,3.952,8.828,8.828S216.737,467.862,211.862,467.862z"/>
		<path style="fill:#C03A2B;" d="M176.552,467.862c-4.875,0-8.828-3.952-8.828-8.828V97.103c0-4.875,3.952-8.828,8.828-8.828
			s8.828,3.952,8.828,8.828v361.931C185.379,463.91,181.427,467.862,176.552,467.862z"/>
		<path style="fill:#C03A2B;" d="M114.759,406.069c-4.875,0-8.828-3.952-8.828-8.828V150.069
			c0.038-34.112,27.682-61.755,61.793-61.793h44.138c4.875,0,8.828,3.952,8.828,8.828s-3.952,8.828-8.828,8.828h-44.138
			c-24.365,0.029-44.109,19.773-44.138,44.138v247.172C123.586,402.117,119.634,406.069,114.759,406.069z"/>
	</g>
	<path style="fill:#E64C3C;" d="M220.69,123.586c-4.875,0-8.828-3.952-8.828-8.828V70.621
		c-0.029-24.365-19.773-44.109-44.138-44.138h-52.966c-4.875,0-8.828-3.952-8.828-8.828s3.952-8.828,8.828-8.828h52.966
		c34.112,0.038,61.755,27.682,61.793,61.793v44.138C229.517,119.634,225.565,123.586,220.69,123.586z"/>
	<path style="fill:#CB8252;" d="M423.724,476.69H264.828c-9.751,0-17.655-7.905-17.655-17.655V300.138
		c0-9.751,7.904-17.655,17.655-17.655v-17.655h158.897v17.655c9.751,0,17.655,7.905,17.655,17.655v158.897
		C441.379,468.785,433.475,476.69,423.724,476.69z"/>
	<polygon style="fill:#FDD7AD;" points="370.759,353.103 344.276,326.621 317.793,353.103 317.793,282.483 370.759,282.483 	"/>
	<g>
		<path style="fill:#5E5F62;" d="M370.759,450.207c-4.875,0-8.828-3.952-8.828-8.828v-26.483c0-4.875,3.952-8.828,8.828-8.828
			s8.828,3.952,8.828,8.828v26.483C379.586,446.255,375.634,450.207,370.759,450.207z"/>
		<path style="fill:#5E5F62;" d="M335.448,450.207c-4.875,0-8.828-3.952-8.828-8.828v-26.483c0-4.875,3.952-8.828,8.828-8.828
			s8.828,3.952,8.828,8.828v26.483C344.276,446.255,340.324,450.207,335.448,450.207z"/>
		<path style="fill:#5E5F62;" d="M406.069,450.207c-4.875,0-8.828-3.952-8.828-8.828v-26.483c0-4.875,3.952-8.828,8.828-8.828
			s8.828,3.952,8.828,8.828v26.483C414.897,446.255,410.944,450.207,406.069,450.207z"/>
	</g>
	<path style="fill:#C03A2B;" d="M211.862,88.276h17.655c9.751,0,17.655,7.904,17.655,17.655v388.414h-35.31V88.276z"/>
	<circle style="fill:#5E5F62;" cx="114.759" cy="450.207" r="61.793"/>
	<circle style="fill:#A5A5A4;" cx="114.759" cy="450.207" r="26.483"/>
	<path style="fill:#5E5F62;" d="M52.966,0h79.448c9.751,0,17.655,7.904,17.655,17.655l0,0c0,9.751-7.904,17.655-17.655,17.655
		H52.966c-9.751,0-17.655-7.904-17.655-17.655l0,0C35.31,7.904,43.215,0,52.966,0z"/>
	<path style="fill:#E64C3C;" d="M211.862,476.69h247.172c9.751,0,17.655,7.904,17.655,17.655S468.785,512,459.034,512H211.862
		V476.69z"/>
	<path style="fill:#CC6F56;" d="M264.828,88.276h158.897c9.751,0,17.655,7.904,17.655,17.655v158.897
		c0,9.751-7.904,17.655-17.655,17.655H264.828c-9.751,0-17.655-7.904-17.655-17.655V105.931
		C247.172,96.18,255.077,88.276,264.828,88.276z"/>
	<polygon style="fill:#FDD7AD;" points="370.759,158.897 344.276,132.414 317.793,158.897 317.793,88.276 370.759,88.276 	"/>
	<g>
		<path style="fill:#5E5F62;" d="M370.759,256c-4.875,0-8.828-3.952-8.828-8.828V220.69c0-4.875,3.952-8.828,8.828-8.828
			s8.828,3.952,8.828,8.828v26.483C379.586,252.048,375.634,256,370.759,256z"/>
		<path style="fill:#5E5F62;" d="M335.448,256c-4.875,0-8.828-3.952-8.828-8.828V220.69c0-4.875,3.952-8.828,8.828-8.828
			s8.828,3.952,8.828,8.828v26.483C344.276,252.048,340.324,256,335.448,256z"/>
		<path style="fill:#5E5F62;" d="M406.069,256c-4.875,0-8.828-3.952-8.828-8.828V220.69c0-4.875,3.952-8.828,8.828-8.828
			s8.828,3.952,8.828,8.828v26.483C414.897,252.048,410.944,256,406.069,256z"/>
	</g>
</g>
<g>
</g>
<g>
</g>
<g>
</g>
<g>
</g>
<g>
</g>
<g>
</g>
<g>
</g>
<g>
</g>
<g>
</g>
<g>
</g>
<g>
</g>
<g>
</g>
<g>
</g>
<g>
</g>
<g>
</g>
</svg>
