<?xml version="1.0" encoding="iso-8859-1"?>
<!-- Generator: Adobe Illustrator 19.0.0, SVG Export Plug-In . SVG Version: 6.00 Build 0)  -->
<svg version="1.1" id="Layer_1" xmlns="http://www.w3.org/2000/svg" xmlns:xlink="http://www.w3.org/1999/xlink" x="0px" y="0px"
	 viewBox="0 0 512 512" style="enable-background:new 0 0 512 512;" xml:space="preserve">
<path style="fill:#FFB92E;" d="M129.408,142.047c1.749-1.391,3.759-2.412,5.914-3.003l8.317-2.28L136.677,8.249H77.128
	l-9.931,183.325L129.408,142.047z"/>
<polygon style="fill:#EF9A1D;" points="99.126,8.249 77.128,8.249 67.197,191.574 90.188,173.272 "/>
<polygon style="fill:#E35F46;" points="72.817,87.862 140.991,87.862 138.428,40.566 75.378,40.566 "/>
<polygon style="fill:#D8422E;" points="75.378,40.566 72.817,87.862 94.815,87.862 97.376,40.566 "/>
<path style="fill:#F7984B;" d="M136.677,16.498H77.128c-4.556,0-8.249-3.692-8.249-8.249S72.572,0,77.128,0h59.549
	c4.556,0,8.249,3.692,8.249,8.249S141.233,16.498,136.677,16.498z"/>
<path style="fill:#EF711D;" d="M90.876,8.249C90.876,3.692,94.57,0,99.126,0H77.128c-4.556,0-8.249,3.692-8.249,8.249
	s3.693,8.249,8.249,8.249h21.998C94.57,16.498,90.876,12.806,90.876,8.249z"/>
<polygon style="fill:#E35F46;" points="364.709,146.5 256.001,116.69 147.313,146.495 54.994,219.993 54.994,262.607 
	54.994,459.766 54.994,502.38 256.001,502.38 457.008,502.38 457.008,459.766 457.008,348.006 457.008,318.309 457.008,305.392 
	457.008,275.695 457.008,262.244 457.008,219.63 "/>
<polygon style="fill:#D8422E;" points="76.714,262.607 76.714,219.993 169.034,146.495 266.86,119.668 256.001,116.69 
	147.313,146.495 54.994,219.993 54.994,262.607 54.994,459.766 54.994,502.38 76.714,502.38 76.714,459.766 "/>
<g>
	<circle style="fill:#FFB92E;" cx="157.285" cy="246.794" r="21.448"/>
	<circle style="fill:#FFB92E;" cx="355.254" cy="246.794" r="21.448"/>
	<circle style="fill:#FFB92E;" cx="256.275" cy="246.794" r="21.448"/>
</g>
<g>
	<path style="fill:#EF9A1D;" d="M157.289,246.796c0-7.935,4.319-14.845,10.724-18.555c-3.158-1.828-6.814-2.893-10.724-2.893
		c-11.846,0-21.448,9.602-21.448,21.448s9.602,21.448,21.448,21.448c3.91,0,7.566-1.065,10.724-2.893
		C161.608,261.641,157.289,254.731,157.289,246.796z"/>
	<path style="fill:#EF9A1D;" d="M355.258,246.796c0-7.935,4.319-14.845,10.724-18.555c-3.158-1.828-6.813-2.893-10.724-2.893
		c-11.846,0-21.448,9.602-21.448,21.448s9.602,21.448,21.448,21.448c3.911,0,7.566-1.065,10.724-2.893
		C359.576,261.641,355.258,254.731,355.258,246.796z"/>
	<path style="fill:#EF9A1D;" d="M256.274,246.796c0-7.935,4.319-14.845,10.724-18.555c-3.158-1.828-6.813-2.893-10.724-2.893
		c-11.846,0-21.448,9.602-21.448,21.448s9.602,21.448,21.448,21.448c3.911,0,7.566-1.065,10.724-2.893
		C260.592,261.641,256.274,254.731,256.274,246.796z"/>
</g>
<g>
	<rect x="135.837" y="409.996" style="fill:#CCC3A8;" width="240.865" height="35.527"/>
	<rect x="135.837" y="338.965" style="fill:#CCC3A8;" width="240.865" height="35.527"/>
</g>
<g>
	<rect x="135.837" y="445.522" style="fill:#DFDBCC;" width="240.865" height="35.516"/>
	<rect x="135.837" y="374.48" style="fill:#DFDBCC;" width="240.865" height="35.516"/>
	<rect x="135.837" y="303.438" style="fill:#DFDBCC;" width="240.865" height="35.516"/>
</g>
<g>
	<rect x="135.837" y="409.996" style="fill:#C9B585;" width="21.721" height="35.527"/>
	<rect x="135.837" y="338.965" style="fill:#C9B585;" width="21.721" height="35.527"/>
</g>
<g>
	<rect x="135.837" y="445.522" style="fill:#D8CFB2;" width="21.721" height="35.516"/>
	<rect x="135.837" y="374.48" style="fill:#D8CFB2;" width="21.721" height="35.516"/>
	<rect x="135.837" y="303.438" style="fill:#D8CFB2;" width="21.721" height="35.516"/>
</g>
<path style="fill:#CCC3A8;" d="M379.064,512h33.27h82.857c7.613,0,13.784-6.171,13.784-13.785v-3.388
	c0-7.613-6.17-13.785-13.784-13.785h-82.857H99.668H16.811c-7.613,0-13.785,6.171-13.785,13.785v3.388
	c0,7.613,6.171,13.785,13.785,13.785h82.857h248.6"/>
<path style="fill:#C9B585;" d="M24.745,498.215v-3.388c0-7.613,6.173-13.785,13.786-13.785H16.811
	c-7.613,0-13.785,6.171-13.785,13.785v3.388c0,7.613,6.171,13.785,13.785,13.785h21.721C30.918,512,24.745,505.829,24.745,498.215z"
	/>
<path style="fill:#CCC3A8;" d="M26.406,259.446c-4.853,0-9.66-2.132-12.919-6.223c-5.673-7.128-4.496-17.508,2.632-23.184
	l113.289-90.191c1.749-1.391,3.759-2.412,5.914-3.003l116.316-31.897c2.858-0.784,5.871-0.784,8.727,0l116.316,31.897
	c2.141,0.587,4.144,1.6,5.884,2.98l113.832,90.191c7.143,5.659,8.346,16.035,2.685,23.177c-5.659,7.142-16.034,8.343-23.175,2.685
	L364.71,167.776l-108.709-29.811l-108.687,29.806L36.67,255.854C33.636,258.271,30.007,259.446,26.406,259.446z"/>
<path style="fill:#C9B585;" d="M44.317,246.144c-5.133,0-10.218-2.254-13.664-6.582c-4.772-5.996-4.947-14.159-1.033-20.272
	l-13.501,10.749c-7.128,5.675-8.305,16.055-2.632,23.184c3.259,4.093,8.067,6.223,12.919,6.223c3.6,0,7.228-1.174,10.264-3.592
	l13.455-10.711C48.241,245.808,46.277,246.144,44.317,246.144z"/>
<path style="fill:#CCC3A8;" d="M376.706,311.69H135.841c-4.557,0-8.249-3.692-8.249-8.249c0-4.557,3.692-8.249,8.249-8.249h240.863
	c4.556,0,8.249,3.692,8.249,8.249C384.955,307.996,381.26,311.69,376.706,311.69z"/>
<path style="fill:#C9B585;" d="M149.04,303.441c0-4.557,3.692-8.249,8.249-8.249h-21.448c-4.557,0-8.249,3.692-8.249,8.249
	c0,4.557,3.692,8.249,8.249,8.249h21.448C152.733,311.69,149.04,307.996,149.04,303.441z"/>
<g>
</g>
<g>
</g>
<g>
</g>
<g>
</g>
<g>
</g>
<g>
</g>
<g>
</g>
<g>
</g>
<g>
</g>
<g>
</g>
<g>
</g>
<g>
</g>
<g>
</g>
<g>
</g>
<g>
</g>
</svg>
